<svg width="22" height="20" viewBox="0 0 22 20" fill="none" xmlns="http://www.w3.org/2000/svg">
<path d="M10.75 19.3C10.44 19.3 10.14 19.26 9.89 19.17C6.07 17.86 0 13.21 0 6.34C0 2.84 2.83 0 6.31 0C8 0 9.58 0.66 10.75 1.84C11.92 0.66 13.5 0 15.19 0C18.67 0 21.5 2.85 21.5 6.34C21.5 13.22 15.43 17.86 11.61 19.17C11.36 19.26 11.06 19.3 10.75 19.3ZM6.31 1.5C3.66 1.5 1.5 3.67 1.5 6.34C1.5 13.17 8.07 16.97 10.38 17.76C10.56 17.82 10.95 17.82 11.13 17.76C13.43 16.97 20.01 13.18 20.01 6.34C20.01 3.67 17.85 1.5 15.2 1.5C13.68 1.5 12.27 2.21 11.36 3.44C11.08 3.82 10.44 3.82 10.16 3.44C9.23 2.2 7.83 1.5 6.31 1.5Z" fill="#263141"/>
</svg>
