<svg width="20" height="20" viewBox="0 0 20 20" fill="none" xmlns="http://www.w3.org/2000/svg">
<path d="M9.71429 1.7394C12.308 1.7394 12.6152 1.74906 13.6398 1.79548C14.2558 1.80297 14.8661 1.91538 15.4439 2.12783C15.8629 2.28841 16.2434 2.5344 16.561 2.84997C16.8786 3.16554 17.1261 3.54369 17.2877 3.96008C17.5015 4.53427 17.6146 5.14063 17.6222 5.75281C17.6684 6.77098 17.6786 7.07621 17.6786 9.65359C17.6786 12.231 17.6689 12.5362 17.6222 13.5544C17.6146 14.1666 17.5015 14.7729 17.2877 15.3471C17.1261 15.7635 16.8786 16.1416 16.561 16.4572C16.2434 16.7728 15.8629 17.0188 15.4439 17.1794C14.8661 17.3918 14.2558 17.5042 13.6398 17.5117C12.6156 17.5577 12.3085 17.5678 9.71429 17.5678C7.12011 17.5678 6.81296 17.5581 5.78879 17.5117C5.17273 17.5042 4.56253 17.3918 3.98471 17.1794C3.56568 17.0188 3.18513 16.7728 2.86757 16.4572C2.55 16.1416 2.30245 15.7635 2.14084 15.3471C1.92706 14.7729 1.81393 14.1666 1.8064 13.5544C1.76014 12.5362 1.74996 12.231 1.74996 9.65359C1.74996 7.07621 1.75967 6.77098 1.8064 5.75281C1.81393 5.14063 1.92706 4.53427 2.14084 3.96008C2.30245 3.54369 2.55 3.16554 2.86757 2.84997C3.18513 2.5344 3.56568 2.28841 3.98471 2.12783C4.56253 1.91538 5.17273 1.80297 5.78879 1.79548C6.81342 1.74952 7.12057 1.7394 9.71429 1.7394ZM9.71429 0C7.07755 0 6.74542 0.0110321 5.70923 0.0579188C4.90296 0.0738547 4.10526 0.225553 3.35004 0.50656C2.70219 0.749114 2.1154 1.12922 1.63061 1.62035C1.13592 2.10226 0.753086 2.68568 0.508844 3.32987C0.226056 4.08033 0.0733975 4.87302 0.0573606 5.6742C0.0111021 6.70295 0 7.033 0 9.65313C0 12.2733 0.011102 12.6033 0.0582857 13.633C0.0743226 14.4342 0.226982 15.2269 0.509769 15.9773C0.75374 16.6214 1.13626 17.2048 1.63061 17.6868C2.11567 18.1781 2.70278 18.5582 3.35097 18.8006C4.10618 19.0816 4.90389 19.2333 5.71015 19.2493C6.74634 19.2952 7.07709 19.3072 9.71522 19.3072C12.3533 19.3072 12.6841 19.2962 13.7203 19.2493C14.5265 19.2333 15.3242 19.0816 16.0795 18.8006C16.7246 18.5521 17.3104 18.1726 17.7995 17.6863C18.2885 17.2 18.6701 16.6176 18.9197 15.9764C19.2025 15.2259 19.3552 14.4333 19.3712 13.6321C19.4175 12.6033 19.4286 12.2733 19.4286 9.65313C19.4286 7.033 19.4175 6.70295 19.3703 5.67329C19.3543 4.8721 19.2016 4.07941 18.9188 3.32895C18.6748 2.68485 18.2923 2.10143 17.798 1.61943C17.3129 1.12819 16.7258 0.748076 16.0776 0.50564C15.3224 0.224633 14.5247 0.0729354 13.7184 0.0569995C12.6832 0.0110322 12.351 0 9.71429 0Z" fill="white"/>
<path d="M9.71508 4.69531C8.72845 4.69531 7.76397 4.98604 6.94361 5.53074C6.12325 6.07543 5.48386 6.84963 5.10629 7.75542C4.72872 8.66122 4.62993 9.65793 4.82242 10.6195C5.0149 11.5811 5.49001 12.4644 6.18767 13.1576C6.88533 13.8509 7.77419 14.323 8.74187 14.5143C9.70955 14.7056 10.7126 14.6074 11.6241 14.2322C12.5356 13.857 13.3147 13.2216 13.8629 12.4065C14.411 11.5913 14.7036 10.6329 14.7036 9.65243C14.7036 8.33772 14.178 7.07686 13.2425 6.14722C12.307 5.21758 11.0381 4.69531 9.71508 4.69531ZM9.71508 12.8701C9.07465 12.8701 8.4486 12.6814 7.91609 12.3279C7.38359 11.9743 6.96856 11.4718 6.72347 10.8838C6.47839 10.2958 6.41426 9.64886 6.53921 9.02468C6.66415 8.40051 6.97255 7.82717 7.4254 7.37716C7.87826 6.92716 8.45523 6.6207 9.08336 6.49654C9.71149 6.37239 10.3626 6.43611 10.9542 6.67965C11.5459 6.92319 12.0517 7.33561 12.4075 7.86476C12.7633 8.39391 12.9532 9.01602 12.9532 9.65243C12.9532 10.5058 12.612 11.3243 12.0048 11.9277C11.3975 12.5311 10.5739 12.8701 9.71508 12.8701Z" fill="white"/>
<path d="M14.9001 5.65855C15.5439 5.65855 16.0658 5.13993 16.0658 4.50017C16.0658 3.86042 15.5439 3.3418 14.9001 3.3418C14.2563 3.3418 13.7344 3.86042 13.7344 4.50017C13.7344 5.13993 14.2563 5.65855 14.9001 5.65855Z" fill="white"/>
</svg>
