<svg width="136" height="137" viewBox="0 0 136 137" fill="none" xmlns="http://www.w3.org/2000/svg">
<path d="M68.168 133.594C104.17 133.594 133.355 104.212 133.355 67.9688C133.355 31.7251 104.17 2.34375 68.168 2.34375C32.1659 2.34375 2.98047 31.7251 2.98047 67.9688C2.98047 104.212 32.1659 133.594 68.168 133.594Z" fill="#F2F5F9"/>
<path d="M133.006 21.1641V68.0391L129.374 73.1719L122.087 77.1328L33.4785 90.75L33.269 89.6016L21.349 21.75L21.2559 21.1641H133.006Z" fill="#DCEFFD"/>
<path d="M43.6996 87.9844L33.2696 89.6016L21.3496 21.75H32.059L43.6996 87.9844Z" fill="white"/>
<path d="M95.8735 21.0938C95.9105 24.847 94.8386 28.5266 92.7942 31.6655C90.7498 34.8043 87.8249 37.2607 84.391 38.7228C80.9571 40.185 77.1691 40.5869 73.5079 39.8775C69.8467 39.1681 66.4775 37.3794 63.828 34.7386C61.1785 32.0977 59.3683 28.7238 58.6273 25.0453C57.8862 21.3668 58.2477 17.5495 59.6659 14.0782C61.084 10.6069 63.4948 7.63808 66.5922 5.54879C69.6896 3.45951 73.3339 2.34395 77.0623 2.34377C82.0211 2.33739 86.7813 4.30485 90.3051 7.81718C93.8289 11.3295 95.8305 16.1019 95.8735 21.0938Z" fill="#0867D6"/>
<path d="M95.8735 21.0938C95.9105 24.847 94.8386 28.5266 92.7942 31.6655C90.7498 34.8043 87.8249 37.2607 84.391 38.7228C80.9571 40.185 77.1691 40.5869 73.5079 39.8775C69.8467 39.1681 66.4775 37.3794 63.828 34.7386C61.1785 32.0977 59.3683 28.7238 58.6273 25.0453C57.8862 21.3668 58.2477 17.5495 59.6659 14.0782C61.084 10.6069 63.4948 7.63808 66.5922 5.54879C69.6896 3.45951 73.3339 2.34395 77.0623 2.34377C82.0211 2.33739 86.7813 4.30485 90.3051 7.81718C93.8289 11.3295 95.8305 16.1019 95.8735 21.0938Z" fill="#EEEE36"/>
<path d="M95.8735 21.0938C95.9105 24.847 94.8386 28.5266 92.7942 31.6655C90.7498 34.8043 87.8249 37.2607 84.391 38.7228C80.9571 40.185 77.1691 40.5869 73.5079 39.8775C69.8467 39.1681 66.4775 37.3794 63.828 34.7386C61.1785 32.0977 59.3683 28.7238 58.6273 25.0453C57.8862 21.3668 58.2477 17.5495 59.6659 14.0782C61.084 10.6069 63.4948 7.63808 66.5922 5.54879C69.6896 3.45951 73.3339 2.34395 77.0623 2.34377C82.0211 2.33739 86.7813 4.30485 90.3051 7.81718C93.8289 11.3295 95.8305 16.1019 95.8735 21.0938Z" fill="#F1DA09"/>
<path d="M89.1209 27.9375C89.1207 30.2965 88.6784 32.6343 87.8171 34.8282C87.4884 35.7513 87.0835 36.645 86.6065 37.5C83.0272 39.6021 78.8586 40.4555 74.7481 39.9278C70.6376 39.4001 66.8151 37.5208 63.8744 34.5817C60.9337 31.6426 59.0392 27.8083 58.4853 23.6741C57.9313 19.5399 58.7488 15.3372 60.8109 11.7188C61.6695 11.1798 62.5732 10.7171 63.5115 10.336C65.7317 9.43933 68.1038 8.98561 70.4959 9.00003C75.4526 9.04944 80.1896 11.0664 83.6772 14.6126C87.1648 18.1587 89.1211 22.9473 89.1209 27.9375Z" fill="#0867D6"/>
<path d="M89.1209 27.9375C89.1207 30.2965 88.6784 32.6343 87.8171 34.8282C87.4884 35.7513 87.0835 36.645 86.6065 37.5C83.0272 39.6021 78.8586 40.4555 74.7481 39.9278C70.6376 39.4001 66.8151 37.5208 63.8744 34.5817C60.9337 31.6426 59.0392 27.8083 58.4853 23.6741C57.9313 19.5399 58.7488 15.3372 60.8109 11.7188C61.6695 11.1798 62.5732 10.7171 63.5115 10.336C65.7317 9.43933 68.1038 8.98561 70.4959 9.00003C75.4526 9.04944 80.1896 11.0664 83.6772 14.6126C87.1648 18.1587 89.1211 22.9473 89.1209 27.9375Z" fill="#EEEE36"/>
<path d="M89.1209 27.9375C89.1207 30.2965 88.6784 32.6343 87.8171 34.8282C87.4884 35.7513 87.0835 36.645 86.6065 37.5C83.0272 39.6021 78.8586 40.4555 74.7481 39.9278C70.6376 39.4001 66.8151 37.5208 63.8744 34.5817C60.9337 31.6426 59.0392 27.8083 58.4853 23.6741C57.9313 19.5399 58.7488 15.3372 60.8109 11.7188C61.6695 11.1798 62.5732 10.7171 63.5115 10.336C65.7317 9.43933 68.1038 8.98561 70.4959 9.00003C75.4526 9.04944 80.1896 11.0664 83.6772 14.6126C87.1648 18.1587 89.1211 22.9473 89.1209 27.9375Z" fill="#F1DA09"/>
<path d="M89.1209 27.9375C89.1207 30.2965 88.6784 32.6343 87.8171 34.8282C85.5985 35.73 83.2253 36.1839 80.8327 36.1641C75.8437 36.1641 71.059 34.1689 67.5312 30.6174C64.0034 27.066 62.0215 22.2491 62.0215 17.2266C62.0808 14.8555 62.5864 12.5173 63.5115 10.336C65.7316 9.43933 68.1037 8.98561 70.4959 9.00003C75.4526 9.04944 80.1896 11.0664 83.6772 14.6125C87.1648 18.1587 89.1211 22.9473 89.1209 27.9375Z" fill="#0867D6"/>
<path d="M89.1209 27.9375C89.1207 30.2965 88.6784 32.6343 87.8171 34.8282C85.5985 35.73 83.2253 36.1839 80.8327 36.1641C75.8437 36.1641 71.059 34.1689 67.5312 30.6174C64.0034 27.066 62.0215 22.2491 62.0215 17.2266C62.0808 14.8555 62.5864 12.5173 63.5115 10.336C65.7316 9.43933 68.1037 8.98561 70.4959 9.00003C75.4526 9.04944 80.1896 11.0664 83.6772 14.6125C87.1648 18.1587 89.1211 22.9473 89.1209 27.9375Z" fill="#EEEE36"/>
<path d="M89.1209 27.9375C89.1207 30.2965 88.6784 32.6343 87.8171 34.8282C85.5985 35.73 83.2253 36.1839 80.8327 36.1641C75.8437 36.1641 71.059 34.1689 67.5312 30.6174C64.0034 27.066 62.0215 22.2491 62.0215 17.2266C62.0808 14.8555 62.5864 12.5173 63.5115 10.336C65.7316 9.43933 68.1037 8.98561 70.4959 9.00003C75.4526 9.04944 80.1896 11.0664 83.6772 14.6125C87.1648 18.1587 89.1211 22.9473 89.1209 27.9375Z" fill="#F1DA09"/>
<path d="M133.355 107.812H34.3631C23.2812 107.812 23.2812 102.68 23.2812 100.781C23.3334 99.935 23.5688 99.1105 23.971 98.3655C24.3731 97.6205 24.9324 96.9731 25.6094 96.4688C27.641 94.9372 30.0633 94.0187 32.5937 93.8203L33.5017 93.6562H33.7113L120.853 79.6875C124.815 79.07 128.426 77.0412 131.028 73.97C133.63 70.8989 135.051 66.9896 135.031 62.9531V21.0938C135.031 20.4721 134.786 19.876 134.349 19.4365C133.913 18.9969 133.321 18.75 132.703 18.75H98.1537C97.5155 13.6086 95.034 8.87883 91.1756 5.44969C87.3171 2.02056 82.3475 0.128151 77.2006 0.128151C72.0538 0.128151 67.0841 2.02056 63.2257 5.44969C59.3672 8.87883 56.8857 13.6086 56.2475 18.75H22.7691L21.0928 9.375C20.6485 6.75675 19.3001 4.38051 17.2855 2.66535C15.2708 0.950182 12.7193 0.00624569 10.0808 0H2.32812C1.71067 0 1.1185 0.24693 0.681892 0.686468C0.245284 1.12601 0 1.72215 0 2.34375C0 2.96535 0.245284 3.56149 0.681892 4.00103C1.1185 4.44057 1.71067 4.6875 2.32812 4.6875H10.0808C11.6085 4.68932 13.0875 5.22937 14.2611 6.21398C15.4348 7.19858 16.2291 8.56566 16.5064 10.0781L30.4752 89.3672C27.5939 89.838 24.8739 91.0219 22.5595 92.8125C21.3568 93.763 20.3796 94.9715 19.699 96.3499C19.0184 97.7283 18.6515 99.2421 18.625 100.781C18.625 105.164 20.6737 112.5 34.3631 112.5H133.355C133.972 112.5 134.565 112.253 135.001 111.814C135.438 111.374 135.683 110.778 135.683 110.156C135.683 109.535 135.438 108.939 135.001 108.499C134.565 108.059 133.972 107.812 133.355 107.812ZM77.1541 4.6875C80.422 4.68771 83.6161 5.66583 86.3307 7.4976C89.0452 9.32937 91.1576 11.9321 92.3995 14.9752C93.6414 18.0182 93.9568 21.3642 93.3055 24.5881C92.6543 27.812 91.0658 30.7682 88.7419 33.0813C86.418 35.3943 83.4637 36.9597 80.2541 37.5787C77.0445 38.1976 73.7246 37.8421 70.7161 36.5574C67.7077 35.2727 65.1464 33.1166 63.3579 30.3633C61.5693 27.6099 60.634 24.3834 60.6709 21.0938C60.726 16.7273 62.4861 12.5582 65.5707 9.48798C68.6553 6.41778 72.8164 4.69331 77.1541 4.6875ZM56.2009 23.625C56.8391 28.7664 59.3207 33.4962 63.1791 36.9253C67.0375 40.3544 72.0072 42.2468 77.1541 42.2468C82.3009 42.2468 87.2706 40.3544 91.129 36.9253C94.9875 33.4962 97.469 28.7664 98.1072 23.625H130.375V63.0234C130.391 65.9444 129.363 68.7737 127.478 70.9942C125.592 73.2148 122.977 74.6782 120.108 75.1172L35.178 88.7109L23.6072 23.4375L56.2009 23.625Z" fill="#0867D6"/>
<path d="M133.355 107.812H34.3631C23.2812 107.812 23.2812 102.68 23.2812 100.781C23.3334 99.935 23.5688 99.1105 23.971 98.3655C24.3731 97.6205 24.9324 96.9731 25.6094 96.4688C27.641 94.9372 30.0633 94.0187 32.5937 93.8203L33.5017 93.6562H33.7113L120.853 79.6875C124.815 79.07 128.426 77.0412 131.028 73.97C133.63 70.8989 135.051 66.9896 135.031 62.9531V21.0938C135.031 20.4721 134.786 19.876 134.349 19.4365C133.913 18.9969 133.321 18.75 132.703 18.75H98.1537C97.5155 13.6086 95.034 8.87883 91.1756 5.44969C87.3171 2.02056 82.3475 0.128151 77.2006 0.128151C72.0538 0.128151 67.0841 2.02056 63.2257 5.44969C59.3672 8.87883 56.8857 13.6086 56.2475 18.75H22.7691L21.0928 9.375C20.6485 6.75675 19.3001 4.38051 17.2855 2.66535C15.2708 0.950182 12.7193 0.00624569 10.0808 0H2.32812C1.71067 0 1.1185 0.24693 0.681892 0.686468C0.245284 1.12601 0 1.72215 0 2.34375C0 2.96535 0.245284 3.56149 0.681892 4.00103C1.1185 4.44057 1.71067 4.6875 2.32812 4.6875H10.0808C11.6085 4.68932 13.0875 5.22937 14.2611 6.21398C15.4348 7.19858 16.2291 8.56566 16.5064 10.0781L30.4752 89.3672C27.5939 89.838 24.8739 91.0219 22.5595 92.8125C21.3568 93.763 20.3796 94.9715 19.699 96.3499C19.0184 97.7283 18.6515 99.2421 18.625 100.781C18.625 105.164 20.6737 112.5 34.3631 112.5H133.355C133.972 112.5 134.565 112.253 135.001 111.814C135.438 111.374 135.683 110.778 135.683 110.156C135.683 109.535 135.438 108.939 135.001 108.499C134.565 108.059 133.972 107.812 133.355 107.812ZM77.1541 4.6875C80.422 4.68771 83.6161 5.66583 86.3307 7.4976C89.0452 9.32937 91.1576 11.9321 92.3995 14.9752C93.6414 18.0182 93.9568 21.3642 93.3055 24.5881C92.6543 27.812 91.0658 30.7682 88.7419 33.0813C86.418 35.3943 83.4637 36.9597 80.2541 37.5787C77.0445 38.1976 73.7246 37.8421 70.7161 36.5574C67.7077 35.2727 65.1464 33.1166 63.3579 30.3633C61.5693 27.6099 60.634 24.3834 60.6709 21.0938C60.726 16.7273 62.4861 12.5582 65.5707 9.48798C68.6553 6.41778 72.8164 4.69331 77.1541 4.6875ZM56.2009 23.625C56.8391 28.7664 59.3207 33.4962 63.1791 36.9253C67.0375 40.3544 72.0072 42.2468 77.1541 42.2468C82.3009 42.2468 87.2706 40.3544 91.129 36.9253C94.9875 33.4962 97.469 28.7664 98.1072 23.625H130.375V63.0234C130.391 65.9444 129.363 68.7737 127.478 70.9942C125.592 73.2148 122.977 74.6782 120.108 75.1172L35.178 88.7109L23.6072 23.4375L56.2009 23.625Z" fill="#0696E7"/>
<path d="M133.355 107.812H34.3631C23.2812 107.812 23.2812 102.68 23.2812 100.781C23.3334 99.935 23.5688 99.1105 23.971 98.3655C24.3731 97.6205 24.9324 96.9731 25.6094 96.4688C27.641 94.9372 30.0633 94.0187 32.5937 93.8203L33.5017 93.6562H33.7113L120.853 79.6875C124.815 79.07 128.426 77.0412 131.028 73.97C133.63 70.8989 135.051 66.9896 135.031 62.9531V21.0938C135.031 20.4721 134.786 19.876 134.349 19.4365C133.913 18.9969 133.321 18.75 132.703 18.75H98.1537C97.5155 13.6086 95.034 8.87883 91.1756 5.44969C87.3171 2.02056 82.3475 0.128151 77.2006 0.128151C72.0538 0.128151 67.0841 2.02056 63.2257 5.44969C59.3672 8.87883 56.8857 13.6086 56.2475 18.75H22.7691L21.0928 9.375C20.6485 6.75675 19.3001 4.38051 17.2855 2.66535C15.2708 0.950182 12.7193 0.00624569 10.0808 0H2.32812C1.71067 0 1.1185 0.24693 0.681892 0.686468C0.245284 1.12601 0 1.72215 0 2.34375C0 2.96535 0.245284 3.56149 0.681892 4.00103C1.1185 4.44057 1.71067 4.6875 2.32812 4.6875H10.0808C11.6085 4.68932 13.0875 5.22937 14.2611 6.21398C15.4348 7.19858 16.2291 8.56566 16.5064 10.0781L30.4752 89.3672C27.5939 89.838 24.8739 91.0219 22.5595 92.8125C21.3568 93.763 20.3796 94.9715 19.699 96.3499C19.0184 97.7283 18.6515 99.2421 18.625 100.781C18.625 105.164 20.6737 112.5 34.3631 112.5H133.355C133.972 112.5 134.565 112.253 135.001 111.814C135.438 111.374 135.683 110.778 135.683 110.156C135.683 109.535 135.438 108.939 135.001 108.499C134.565 108.059 133.972 107.812 133.355 107.812ZM77.1541 4.6875C80.422 4.68771 83.6161 5.66583 86.3307 7.4976C89.0452 9.32937 91.1576 11.9321 92.3995 14.9752C93.6414 18.0182 93.9568 21.3642 93.3055 24.5881C92.6543 27.812 91.0658 30.7682 88.7419 33.0813C86.418 35.3943 83.4637 36.9597 80.2541 37.5787C77.0445 38.1976 73.7246 37.8421 70.7161 36.5574C67.7077 35.2727 65.1464 33.1166 63.3579 30.3633C61.5693 27.6099 60.634 24.3834 60.6709 21.0938C60.726 16.7273 62.4861 12.5582 65.5707 9.48798C68.6553 6.41778 72.8164 4.69331 77.1541 4.6875ZM56.2009 23.625C56.8391 28.7664 59.3207 33.4962 63.1791 36.9253C67.0375 40.3544 72.0072 42.2468 77.1541 42.2468C82.3009 42.2468 87.2706 40.3544 91.129 36.9253C94.9875 33.4962 97.469 28.7664 98.1072 23.625H130.375V63.0234C130.391 65.9444 129.363 68.7737 127.478 70.9942C125.592 73.2148 122.977 74.6782 120.108 75.1172L35.178 88.7109L23.6072 23.4375L56.2009 23.625Z" fill="#208EE2"/>
<path d="M47.029 114.305C44.8915 114.305 42.802 114.943 41.0251 116.139C39.2481 117.335 37.8636 119.035 37.0466 121.023C36.2297 123.012 36.0171 125.2 36.4358 127.31C36.8546 129.42 37.8857 131.358 39.3988 132.878C40.9119 134.398 42.8389 135.432 44.9359 135.849C47.0329 136.266 49.2056 136.047 51.1791 135.22C53.1526 134.393 54.8381 132.996 56.0223 131.204C57.2065 129.413 57.8361 127.308 57.8315 125.156C57.8254 122.276 56.6845 119.516 54.6593 117.482C52.6341 115.447 49.89 114.305 47.029 114.305ZM47.029 131.344C45.8134 131.344 44.6251 130.981 43.6144 130.301C42.6036 129.621 41.8158 128.655 41.3507 127.524C40.8855 126.393 40.7637 125.149 41.0009 123.949C41.238 122.749 41.8234 121.646 42.683 120.781C43.5426 119.916 44.6377 119.326 45.83 119.088C47.0222 118.849 48.258 118.971 49.3811 119.44C50.5042 119.908 51.4641 120.701 52.1395 121.719C52.8148 122.736 53.1753 123.932 53.1753 125.156C53.1508 126.781 52.4925 128.331 51.3425 129.471C50.1925 130.611 48.6431 131.25 47.029 131.25V131.344Z" fill="#0867D6"/>
<path d="M47.029 114.305C44.8915 114.305 42.802 114.943 41.0251 116.139C39.2481 117.335 37.8636 119.035 37.0466 121.023C36.2297 123.012 36.0171 125.2 36.4358 127.31C36.8546 129.42 37.8857 131.358 39.3988 132.878C40.9119 134.398 42.8389 135.432 44.9359 135.849C47.0329 136.266 49.2056 136.047 51.1791 135.22C53.1526 134.393 54.8381 132.996 56.0223 131.204C57.2065 129.413 57.8361 127.308 57.8315 125.156C57.8254 122.276 56.6845 119.516 54.6593 117.482C52.6341 115.447 49.89 114.305 47.029 114.305ZM47.029 131.344C45.8134 131.344 44.6251 130.981 43.6144 130.301C42.6036 129.621 41.8158 128.655 41.3507 127.524C40.8855 126.393 40.7637 125.149 41.0009 123.949C41.238 122.749 41.8234 121.646 42.683 120.781C43.5426 119.916 44.6377 119.326 45.83 119.088C47.0222 118.849 48.258 118.971 49.3811 119.44C50.5042 119.908 51.4641 120.701 52.1395 121.719C52.8148 122.736 53.1753 123.932 53.1753 125.156C53.1508 126.781 52.4925 128.331 51.3425 129.471C50.1925 130.611 48.6431 131.25 47.029 131.25V131.344Z" fill="#0696E7"/>
<path d="M47.029 114.305C44.8915 114.305 42.802 114.943 41.0251 116.139C39.2481 117.335 37.8636 119.035 37.0466 121.023C36.2297 123.012 36.0171 125.2 36.4358 127.31C36.8546 129.42 37.8857 131.358 39.3988 132.878C40.9119 134.398 42.8389 135.432 44.9359 135.849C47.0329 136.266 49.2056 136.047 51.1791 135.22C53.1526 134.393 54.8381 132.996 56.0223 131.204C57.2065 129.413 57.8361 127.308 57.8315 125.156C57.8254 122.276 56.6845 119.516 54.6593 117.482C52.6341 115.447 49.89 114.305 47.029 114.305ZM47.029 131.344C45.8134 131.344 44.6251 130.981 43.6144 130.301C42.6036 129.621 41.8158 128.655 41.3507 127.524C40.8855 126.393 40.7637 125.149 41.0009 123.949C41.238 122.749 41.8234 121.646 42.683 120.781C43.5426 119.916 44.6377 119.326 45.83 119.088C47.0222 118.849 48.258 118.971 49.3811 119.44C50.5042 119.908 51.4641 120.701 52.1395 121.719C52.8148 122.736 53.1753 123.932 53.1753 125.156C53.1508 126.781 52.4925 128.331 51.3425 129.471C50.1925 130.611 48.6431 131.25 47.029 131.25V131.344Z" fill="#208EE2"/>
<path fill-rule="evenodd" clip-rule="evenodd" d="M112.799 114.305C110.661 114.305 108.572 114.943 106.795 116.139C105.018 117.335 103.633 119.035 102.816 121.023C101.999 123.012 101.787 125.2 102.205 127.31C102.624 129.42 103.655 131.358 105.168 132.878C106.681 134.398 108.608 135.432 110.705 135.849C112.802 136.266 114.975 136.047 116.949 135.22C118.922 134.393 120.608 132.996 121.792 131.204C122.976 129.413 123.606 127.308 123.601 125.156C123.595 122.276 122.454 119.516 120.429 117.482C118.404 115.447 115.66 114.305 112.799 114.305ZM109.384 130.301C110.395 130.981 111.583 131.344 112.799 131.344V131.25C114.413 131.25 115.962 130.611 117.112 129.471C118.262 128.331 118.92 126.781 118.945 125.156C118.945 123.932 118.584 122.736 117.909 121.719C117.234 120.701 116.274 119.908 115.151 119.44C114.028 118.971 112.792 118.849 111.599 119.088C110.407 119.326 109.312 119.916 108.453 120.781C107.593 121.646 107.008 122.749 106.77 123.949C106.533 125.149 106.655 126.393 107.12 127.524C107.585 128.655 108.373 129.621 109.384 130.301Z" fill="#0867D6"/>
<path fill-rule="evenodd" clip-rule="evenodd" d="M112.799 114.305C110.661 114.305 108.572 114.943 106.795 116.139C105.018 117.335 103.633 119.035 102.816 121.023C101.999 123.012 101.787 125.2 102.205 127.31C102.624 129.42 103.655 131.358 105.168 132.878C106.681 134.398 108.608 135.432 110.705 135.849C112.802 136.266 114.975 136.047 116.949 135.22C118.922 134.393 120.608 132.996 121.792 131.204C122.976 129.413 123.606 127.308 123.601 125.156C123.595 122.276 122.454 119.516 120.429 117.482C118.404 115.447 115.66 114.305 112.799 114.305ZM109.384 130.301C110.395 130.981 111.583 131.344 112.799 131.344V131.25C114.413 131.25 115.962 130.611 117.112 129.471C118.262 128.331 118.92 126.781 118.945 125.156C118.945 123.932 118.584 122.736 117.909 121.719C117.234 120.701 116.274 119.908 115.151 119.44C114.028 118.971 112.792 118.849 111.599 119.088C110.407 119.326 109.312 119.916 108.453 120.781C107.593 121.646 107.008 122.749 106.77 123.949C106.533 125.149 106.655 126.393 107.12 127.524C107.585 128.655 108.373 129.621 109.384 130.301Z" fill="#0696E7"/>
<path fill-rule="evenodd" clip-rule="evenodd" d="M112.799 114.305C110.661 114.305 108.572 114.943 106.795 116.139C105.018 117.335 103.633 119.035 102.816 121.023C101.999 123.012 101.787 125.2 102.205 127.31C102.624 129.42 103.655 131.358 105.168 132.878C106.681 134.398 108.608 135.432 110.705 135.849C112.802 136.266 114.975 136.047 116.949 135.22C118.922 134.393 120.608 132.996 121.792 131.204C122.976 129.413 123.606 127.308 123.601 125.156C123.595 122.276 122.454 119.516 120.429 117.482C118.404 115.447 115.66 114.305 112.799 114.305ZM109.384 130.301C110.395 130.981 111.583 131.344 112.799 131.344V131.25C114.413 131.25 115.962 130.611 117.112 129.471C118.262 128.331 118.92 126.781 118.945 125.156C118.945 123.932 118.584 122.736 117.909 121.719C117.234 120.701 116.274 119.908 115.151 119.44C114.028 118.971 112.792 118.849 111.599 119.088C110.407 119.326 109.312 119.916 108.453 120.781C107.593 121.646 107.008 122.749 106.77 123.949C106.533 125.149 106.655 126.393 107.12 127.524C107.585 128.655 108.373 129.621 109.384 130.301Z" fill="#208EE2"/>
<path d="M68.0274 30.2109C68.4636 30.6474 69.0536 30.8925 69.6687 30.8925C70.2838 30.8925 70.8738 30.6474 71.31 30.2109L76.9907 24.4922L82.6713 30.2109C82.8869 30.4324 83.144 30.6085 83.4278 30.7292C83.7115 30.8499 84.0162 30.9128 84.3242 30.914C84.7867 30.9167 85.2394 30.7808 85.6248 30.5234C86.0101 30.2661 86.3106 29.899 86.4879 29.4691C86.6653 29.0391 86.7114 28.5658 86.6204 28.1093C86.5295 27.6529 86.3055 27.234 85.9772 26.9062L80.2966 21.0937L85.9772 15.4687C86.1928 15.2502 86.3634 14.9911 86.4795 14.7061C86.5956 14.4212 86.6547 14.1161 86.6537 13.8081C86.6526 13.5001 86.5913 13.1954 86.4732 12.9113C86.3551 12.6272 86.1826 12.3693 85.9656 12.1523C85.7485 11.9353 85.4911 11.7635 85.2081 11.6467C84.925 11.5298 84.6219 11.4702 84.316 11.4713C84.0101 11.4724 83.7074 11.5341 83.4252 11.653C83.143 11.7719 82.8868 11.9455 82.6713 12.164L76.9907 17.8828L71.31 12.164C70.8738 11.7275 70.2838 11.4825 69.6687 11.4825C69.0536 11.4825 68.4636 11.7275 68.0274 12.164C67.5938 12.6032 67.3504 13.1972 67.3504 13.8164C67.3504 14.4356 67.5938 15.0296 68.0274 15.4687L73.708 21.0937L68.0274 26.8125C67.7984 27.0314 67.6161 27.295 67.4916 27.5871C67.367 27.8792 67.3027 28.1938 67.3027 28.5117C67.3027 28.8296 67.367 29.1442 67.4916 29.4363C67.6161 29.7284 67.7984 29.992 68.0274 30.2109Z" fill="#0867D6"/>
<path d="M68.0274 30.2109C68.4636 30.6474 69.0536 30.8925 69.6687 30.8925C70.2838 30.8925 70.8738 30.6474 71.31 30.2109L76.9907 24.4922L82.6713 30.2109C82.8869 30.4324 83.144 30.6085 83.4278 30.7292C83.7115 30.8499 84.0162 30.9128 84.3242 30.914C84.7867 30.9167 85.2394 30.7808 85.6248 30.5234C86.0101 30.2661 86.3106 29.899 86.4879 29.4691C86.6653 29.0391 86.7114 28.5658 86.6204 28.1093C86.5295 27.6529 86.3055 27.234 85.9772 26.9062L80.2966 21.0937L85.9772 15.4687C86.1928 15.2502 86.3634 14.9911 86.4795 14.7061C86.5956 14.4212 86.6547 14.1161 86.6537 13.8081C86.6526 13.5001 86.5913 13.1954 86.4732 12.9113C86.3551 12.6272 86.1826 12.3693 85.9656 12.1523C85.7485 11.9353 85.4911 11.7635 85.2081 11.6467C84.925 11.5298 84.6219 11.4702 84.316 11.4713C84.0101 11.4724 83.7074 11.5341 83.4252 11.653C83.143 11.7719 82.8868 11.9455 82.6713 12.164L76.9907 17.8828L71.31 12.164C70.8738 11.7275 70.2838 11.4825 69.6687 11.4825C69.0536 11.4825 68.4636 11.7275 68.0274 12.164C67.5938 12.6032 67.3504 13.1972 67.3504 13.8164C67.3504 14.4356 67.5938 15.0296 68.0274 15.4687L73.708 21.0937L68.0274 26.8125C67.7984 27.0314 67.6161 27.295 67.4916 27.5871C67.367 27.8792 67.3027 28.1938 67.3027 28.5117C67.3027 28.8296 67.367 29.1442 67.4916 29.4363C67.6161 29.7284 67.7984 29.992 68.0274 30.2109Z" fill="#0696E7"/>
<path d="M68.0274 30.2109C68.4636 30.6474 69.0536 30.8925 69.6687 30.8925C70.2838 30.8925 70.8738 30.6474 71.31 30.2109L76.9907 24.4922L82.6713 30.2109C82.8869 30.4324 83.144 30.6085 83.4278 30.7292C83.7115 30.8499 84.0162 30.9128 84.3242 30.914C84.7867 30.9167 85.2394 30.7808 85.6248 30.5234C86.0101 30.2661 86.3106 29.899 86.4879 29.4691C86.6653 29.0391 86.7114 28.5658 86.6204 28.1093C86.5295 27.6529 86.3055 27.234 85.9772 26.9062L80.2966 21.0937L85.9772 15.4687C86.1928 15.2502 86.3634 14.9911 86.4795 14.7061C86.5956 14.4212 86.6547 14.1161 86.6537 13.8081C86.6526 13.5001 86.5913 13.1954 86.4732 12.9113C86.3551 12.6272 86.1826 12.3693 85.9656 12.1523C85.7485 11.9353 85.4911 11.7635 85.2081 11.6467C84.925 11.5298 84.6219 11.4702 84.316 11.4713C84.0101 11.4724 83.7074 11.5341 83.4252 11.653C83.143 11.7719 82.8868 11.9455 82.6713 12.164L76.9907 17.8828L71.31 12.164C70.8738 11.7275 70.2838 11.4825 69.6687 11.4825C69.0536 11.4825 68.4636 11.7275 68.0274 12.164C67.5938 12.6032 67.3504 13.1972 67.3504 13.8164C67.3504 14.4356 67.5938 15.0296 68.0274 15.4687L73.708 21.0937L68.0274 26.8125C67.7984 27.0314 67.6161 27.295 67.4916 27.5871C67.367 27.8792 67.3027 28.1938 67.3027 28.5117C67.3027 28.8296 67.367 29.1442 67.4916 29.4363C67.6161 29.7284 67.7984 29.992 68.0274 30.2109Z" fill="#208EE2"/>
</svg>
