<svg width="17" height="13" viewBox="0 0 17 13" fill="none" xmlns="http://www.w3.org/2000/svg">
<path d="M16.0236 1.49275C15.4227 1.75813 14.7884 1.92399 14.1208 2.02351C14.7884 1.62544 15.3225 0.995169 15.5562 0.232206C14.9219 0.597101 14.2209 0.862479 13.4531 1.02834C12.8522 0.398067 11.9843 0 11.0496 0C9.24693 0 7.77811 1.45958 7.77811 3.25088C7.77811 3.51626 7.81149 3.74847 7.87826 3.98067C5.17428 3.84799 2.73736 2.55427 1.10162 0.563929C0.834561 1.06151 0.667649 1.59227 0.667649 2.18937C0.667649 3.31723 1.23515 4.3124 2.13648 4.9095C1.60236 4.87633 1.10162 4.74364 0.634266 4.51143V4.5446C0.634266 6.13687 1.76927 7.46376 3.27148 7.76232C3.00442 7.82866 2.70398 7.86183 2.40354 7.86183C2.20324 7.86183 1.96956 7.82866 1.76927 7.79549C2.20324 9.08921 3.40501 10.0512 4.84045 10.0512C3.70545 10.9137 2.30339 11.4444 0.767796 11.4444C0.500737 11.4444 0.233677 11.4444 0 11.4113C1.46883 12.3401 3.17133 12.8708 5.04075 12.8708C11.083 12.8708 14.3878 7.895 14.3878 3.58261C14.3878 3.44992 14.3878 3.28406 14.3878 3.15137C15.0221 2.72013 15.5896 2.1562 16.0236 1.49275Z" fill="white"/>
</svg>
