<svg width="80" height="80" viewBox="0 0 80 80" fill="none" xmlns="http://www.w3.org/2000/svg">
<path d="M39.8966 0C45.9986 0.0288307 51.7045 1.29653 57.117 3.86246C57.8319 4.20164 58.2033 4.80624 58.1066 5.46765C58.0032 6.17655 57.4817 6.7379 56.7719 6.79216C56.4531 6.81676 56.0944 6.73026 55.8001 6.59374C53.04 5.30823 50.179 4.32969 47.1849 3.77088C38.0116 2.058 29.3294 3.44781 21.2941 8.20148C12.7221 13.2723 7.10856 20.7013 4.39763 30.2875C3.0799 34.9478 2.78565 39.7015 3.38431 44.5052C4.37897 52.4862 7.64362 59.4107 13.1181 65.2955C13.5022 65.7085 13.9109 66.0994 14.3069 66.5022C14.9776 67.1848 14.998 68.076 14.3603 68.7255C13.7362 69.3606 12.8272 69.3403 12.137 68.6662C7.18403 63.8226 3.7023 58.0862 1.69263 51.4551C0.396102 47.1746 -0.162704 42.7957 0.0408061 38.3338C0.449523 29.4039 3.47759 21.4543 9.16656 14.5535C14.6198 7.93861 21.5112 3.53176 29.8017 1.32875C33.146 0.439244 36.5548 0.0254388 39.8966 0Z" fill="#287FE8"/>
<path d="M40.0992 79.9991C35.0488 79.9567 30.1696 79.0486 25.4592 77.2314C24.562 76.8854 24.1313 76.0282 24.4382 75.2005C24.7427 74.3789 25.6423 73.9939 26.5361 74.339C29.297 75.4049 32.142 76.1486 35.0751 76.5369C38.7221 77.0203 42.3684 76.9846 45.9993 76.3758C51.6417 75.4303 56.8193 73.3291 61.4415 69.9542C69.1317 64.339 74.1482 56.8931 76.0595 47.557C78.3872 36.1876 75.8984 25.8645 68.6848 16.7303C67.9954 15.8569 67.2094 15.0598 66.4708 14.2245C66.0417 13.7395 65.9094 13.1858 66.1511 12.5761C66.3809 11.9961 66.8414 11.6934 67.4485 11.6332C67.9768 11.5806 68.3965 11.8062 68.7628 12.1835C72.0054 15.5287 74.6044 19.3123 76.5081 23.5674C78.3389 27.6579 79.4573 31.9376 79.8245 36.4038C80.7081 47.1525 77.7928 56.7794 71.0269 65.1573C64.83 72.8305 56.7879 77.5223 47.0873 79.3411C46.0765 79.5311 45.053 79.6727 44.0287 79.7651C42.7228 79.8821 41.4093 79.9254 40.0992 80V79.9991Z" fill="#287FE8"/>
<path d="M39.2252 39.9644C40.4174 38.8485 41.5503 37.7894 42.6814 36.7286C46.7796 32.8848 50.8761 29.0401 54.9752 25.1972C55.6807 24.5349 56.638 24.5247 57.2418 25.1632C57.8438 25.8001 57.7853 26.7616 57.0798 27.4256C52.0412 32.1648 46.9993 36.8999 41.9581 41.6366C41.8055 41.7807 41.6529 41.9249 41.4714 42.097C41.6003 42.2344 41.7088 42.3565 41.8242 42.4718C46.2157 46.8651 50.6082 51.2575 55.0023 55.6483C55.3576 56.0036 55.6824 56.3656 55.6942 56.9092C55.7078 57.5689 55.4178 58.0548 54.842 58.3533C54.2722 58.6484 53.721 58.5687 53.2165 58.182C53.0715 58.0709 52.9452 57.9352 52.8154 57.8055C48.4179 53.4181 44.0212 49.0308 39.6262 44.6409C39.5075 44.5222 39.4117 44.3797 39.2709 44.2059C39.0445 44.4136 38.8707 44.5697 38.7003 44.7291C33.9636 49.1503 29.2268 53.5716 24.4901 57.9946C23.7651 58.6713 22.8629 58.6823 22.2363 58.0183C21.641 57.3874 21.7199 56.4225 22.4245 55.7594C27.1968 51.2728 31.97 46.7871 36.744 42.3022C36.8263 42.2251 36.9212 42.1632 37.1587 41.9791C36.9424 41.8477 36.7728 41.7841 36.6558 41.6679C31.9098 36.9304 27.1705 32.1869 22.4245 27.4493C22.0463 27.0711 21.7809 26.6565 21.8301 26.1079C21.8877 25.477 22.2201 25.0233 22.8103 24.7901C23.4234 24.5476 23.9814 24.6824 24.446 25.1386C25.3025 25.9798 26.1471 26.832 26.995 27.6808C30.9584 31.6434 34.9218 35.6067 38.8834 39.5709C38.9928 39.6803 39.0869 39.8041 39.226 39.9661L39.2252 39.9644Z" fill="#287FE8"/>
</svg>
